<?xml version="1.0" encoding="utf-8"?>
<!-- Generator: Adobe Illustrator 15.0.0, SVG Export Plug-In . SVG Version: 6.00 Build 0)  -->
<!DOCTYPE svg PUBLIC "-//W3C//DTD SVG 1.1//EN" "http://www.w3.org/Graphics/SVG/1.1/DTD/svg11.dtd">
<svg version="1.1" id="Layer_1" xmlns="http://www.w3.org/2000/svg" xmlns:xlink="http://www.w3.org/1999/xlink" x="0px" y="0px"
	 width="204.158px" height="48.629px" viewBox="0 0 204.158 48.629" enable-background="new 0 0 204.158 48.629"
	 xml:space="preserve">
<radialGradient id="SVGID_1_" cx="102.9951" cy="81.4395" r="99.5349" gradientUnits="userSpaceOnUse">
	<stop  offset="0" style="stop-color:#EFEFF0"/>
	<stop  offset="1" style="stop-color:#807F83"/>
</radialGradient>
<rect x="-20.671" y="49.939" fill="url(#SVGID_1_)" width="247.333" height="63"/>
<g>
	<path fill="#FFFFFF" d="M165.03,30.057c-0.063,0.474-0.158,0.942-0.273,1.407c-0.115,0.459-0.287,0.86-0.504,1.196
		c-0.227,0.328-0.525,0.546-0.904,0.636c-0.301,0.062-0.539,0.097-0.725,0.106c-0.178,0.017-0.35,0.017-0.506,0.017
		c-0.205,0-0.367,0.021-0.479,0.067c-0.117,0.041-0.179,0.117-0.179,0.218c0.008,0.178,0.076,0.303,0.218,0.364
		c0.139,0.06,0.309,0.096,0.521,0.089c0.334,0,0.688-0.009,1.079-0.021c0.384-0.014,0.771-0.024,1.146-0.041
		c0.385-0.015,0.73-0.024,1.055-0.04c0.32-0.016,0.582-0.021,0.777-0.021c0.252,0,0.607,0.015,1.061,0.035
		c0.457,0.021,0.963,0.033,1.531,0.055c0.56,0.021,1.135,0.034,1.713,0.034c0.31,0.008,0.556-0.027,0.728-0.089
		c0.172-0.063,0.26-0.186,0.26-0.363c-0.008-0.102-0.069-0.178-0.187-0.219c-0.116-0.049-0.26-0.067-0.43-0.067
		c-0.205,0-0.451-0.015-0.738-0.041c-0.289-0.026-0.614-0.082-0.983-0.164c-0.354-0.075-0.649-0.221-0.875-0.425
		c-0.231-0.206-0.349-0.507-0.354-0.891c0-0.319,0.016-0.627,0.035-0.93c0.021-0.301,0.049-0.635,0.088-0.996l2.135-16.318h0.162
		c0.295,0.621,0.606,1.306,0.957,2.043c0.35,0.737,0.707,1.489,1.061,2.241c0.355,0.751,0.688,1.462,1.004,2.126
		c0.309,0.669,0.574,1.236,0.799,1.708c0.221,0.479,0.369,0.808,0.445,0.983c0.09,0.198,0.238,0.521,0.451,0.957
		c0.217,0.438,0.471,0.955,0.771,1.545c0.301,0.596,0.614,1.215,0.948,1.879c0.336,0.656,0.67,1.299,0.992,1.937
		c0.325,0.628,0.621,1.209,0.896,1.729c0.272,0.521,0.491,0.943,0.655,1.265c0.32,0.623,0.601,1.121,0.826,1.481
		c0.228,0.369,0.431,0.562,0.608,0.566c0.117,0.008,0.23-0.048,0.349-0.163c0.116-0.123,0.26-0.35,0.438-0.686
		c0.176-0.326,0.424-0.813,0.73-1.447l8.938-18.614h0.164l2.461,18.041c0.08,0.573,0.096,0.997,0.054,1.284
		c-0.048,0.279-0.13,0.443-0.261,0.479c-0.144,0.063-0.25,0.123-0.332,0.198c-0.075,0.068-0.117,0.15-0.117,0.253
		c-0.008,0.122,0.076,0.22,0.238,0.286c0.172,0.068,0.492,0.123,0.948,0.165c0.281,0.021,0.648,0.042,1.115,0.063
		c0.465,0.021,0.979,0.043,1.545,0.055c0.565,0.021,1.147,0.033,1.735,0.055c0.587,0.016,1.146,0.027,1.681,0.041
		c0.533,0.008,0.998,0.021,1.396,0.027c0.39,0,0.674,0.008,0.854,0.008c0.293,0,0.549-0.035,0.752-0.104
		c0.197-0.068,0.308-0.186,0.313-0.35c0-0.116-0.068-0.198-0.191-0.23c-0.113-0.043-0.271-0.056-0.465-0.056
		c-0.268,0.006-0.605-0.017-1.023-0.067c-0.418-0.049-0.924-0.166-1.518-0.343c-0.402-0.114-0.73-0.342-0.984-0.663
		c-0.252-0.322-0.457-0.771-0.615-1.341c-0.149-0.565-0.293-1.276-0.408-2.139l-3.731-25.336c-0.062-0.43-0.147-0.751-0.272-0.957
		c-0.123-0.211-0.279-0.314-0.463-0.314c-0.179,0-0.336,0.082-0.467,0.247c-0.13,0.165-0.279,0.41-0.438,0.737l-11.152,23.412
		L170.894,3.529c-0.178-0.348-0.328-0.62-0.449-0.806c-0.125-0.185-0.239-0.308-0.342-0.375c-0.104-0.063-0.207-0.096-0.313-0.09
		c-0.166,0-0.308,0.09-0.425,0.273c-0.123,0.177-0.213,0.444-0.272,0.792L165.03,30.057L165.03,30.057z M108.54,34.732
		c0.664,0,1.34-0.021,2.029-0.057c0.688-0.041,1.367-0.097,2.029-0.172c0.661-0.074,1.278-0.177,1.844-0.293
		c0.567-0.115,1.061-0.26,1.479-0.425c0.232-0.088,0.408-0.185,0.541-0.278c0.137-0.099,0.237-0.213,0.313-0.357
		c0.076-0.135,0.15-0.32,0.213-0.555c0.08-0.285,0.162-0.635,0.252-1.051c0.082-0.418,0.164-0.863,0.24-1.328
		c0.08-0.465,0.146-0.914,0.211-1.346c0.062-0.432,0.107-0.801,0.144-1.105c0.033-0.309,0.056-0.521,0.056-0.621
		c0-0.174-0.021-0.314-0.076-0.432s-0.15-0.179-0.293-0.186c-0.156-0.006-0.271,0.05-0.342,0.164
		c-0.068,0.117-0.138,0.334-0.191,0.656c-0.055,0.254-0.148,0.541-0.279,0.854c-0.131,0.32-0.287,0.642-0.479,0.97
		c-0.191,0.322-0.404,0.615-0.638,0.884c-0.538,0.618-1.159,1.098-1.856,1.436c-0.705,0.334-1.519,0.561-2.439,0.682
		c-0.922,0.125-1.996,0.186-3.205,0.18c-0.924,0-1.881-0.137-2.863-0.404c-0.983-0.268-1.963-0.676-2.926-1.209
		c-0.963-0.541-1.871-1.217-2.727-2.022c-0.861-0.813-1.611-1.756-2.275-2.842c-0.656-1.08-1.174-2.297-1.551-3.65
		s-0.568-2.843-0.574-4.469c-0.006-1.332,0.097-2.637,0.314-3.909c0.219-1.278,0.602-2.481,1.148-3.622
		c0.554-1.135,1.316-2.166,2.31-3.088c0.595-0.546,1.263-1.011,2.009-1.387c0.738-0.383,1.577-0.663,2.516-0.862
		c0.937-0.197,2.002-0.294,3.184-0.294c1.265,0.007,2.447,0.117,3.533,0.342c1.094,0.219,2.051,0.52,2.867,0.902
		c0.82,0.383,1.465,0.813,1.922,1.298c0.514,0.54,0.902,1.148,1.168,1.813c0.269,0.656,0.408,1.312,0.432,1.961
		c0,0.287,0.027,0.512,0.083,0.663c0.062,0.157,0.172,0.238,0.327,0.238c0.179,0,0.3-0.082,0.369-0.238
		c0.066-0.165,0.105-0.397,0.121-0.705c0.021-0.211,0.033-0.491,0.041-0.847c0.008-0.355,0.016-0.745,0.021-1.167
		c0.008-0.425,0.017-0.848,0.021-1.265c0.008-0.424,0.021-0.807,0.043-1.149c0.024-0.471,0.061-0.86,0.088-1.147
		c0.035-0.294,0.063-0.527,0.082-0.698c0.021-0.17,0.033-0.307,0.033-0.41c0-0.13-0.039-0.232-0.138-0.321
		c-0.095-0.096-0.25-0.15-0.478-0.17c-0.608-0.07-1.25-0.179-1.93-0.323c-0.67-0.136-1.393-0.267-2.174-0.376
		c-0.619-0.081-1.223-0.157-1.811-0.218c-0.596-0.061-1.217-0.111-1.879-0.145c-0.662-0.027-1.414-0.047-2.256-0.047
		c-2.027,0-3.834,0.177-5.418,0.526c-1.584,0.347-2.992,0.841-4.223,1.489c-1.236,0.65-2.336,1.422-3.314,2.331
		c-0.978,0.909-1.784,1.872-2.413,2.884c-0.628,1.011-1.115,2.029-1.463,3.04c-0.349,1.012-0.586,1.975-0.724,2.884
		c-0.138,0.909-0.206,1.723-0.198,2.426c-0.007,0.998,0.076,2.022,0.233,3.068c0.157,1.053,0.424,2.098,0.806,3.15
		c0.375,1.045,0.896,2.063,1.559,3.061c0.655,0.99,1.49,1.928,2.487,2.816c1.244,1.071,2.596,1.94,4.059,2.598
		c1.457,0.656,3.021,1.136,4.693,1.437C104.897,34.587,106.669,34.738,108.54,34.732L108.54,34.732z M41.091,5.825
		c0-0.163,0.021-0.287,0.076-0.382c0.054-0.09,0.15-0.151,0.295-0.192c0.205-0.061,0.49-0.103,0.854-0.13
		c0.369-0.027,0.806-0.033,1.316-0.033c0.492-0.007,1.021,0.069,1.578,0.219c0.568,0.149,1.121,0.402,1.674,0.745
		c0.554,0.342,1.052,0.806,1.511,1.38c0.45,0.581,0.818,1.292,1.092,2.146c0.272,0.847,0.41,1.852,0.417,3.014
		c-0.006,1.114-0.123,2.078-0.355,2.89c-0.225,0.806-0.524,1.476-0.888,2.01c-0.369,0.538-0.758,0.949-1.176,1.25
		c-0.238,0.178-0.479,0.314-0.716,0.417c-0.24,0.103-0.534,0.178-0.875,0.219c-0.342,0.041-0.778,0.063-1.317,0.063
		c-0.343,0-0.706-0.014-1.073-0.041c-0.369-0.026-0.73-0.076-1.08-0.136c-0.354-0.061-0.671-0.137-0.963-0.232
		c-0.144-0.056-0.238-0.137-0.294-0.247c-0.054-0.109-0.077-0.271-0.077-0.491L41.091,5.825L41.091,5.825z M36.253,22.266
		c0,1.264,0,2.446-0.008,3.561c-0.006,1.106-0.026,2.098-0.053,2.979c-0.028,0.883-0.077,1.612-0.144,2.192
		c-0.048,0.396-0.116,0.76-0.198,1.08c-0.081,0.315-0.198,0.583-0.355,0.778c-0.15,0.207-0.363,0.344-0.636,0.396
		c-0.185,0.041-0.396,0.08-0.643,0.114c-0.244,0.026-0.525,0.05-0.833,0.05c-0.237,0-0.409,0.025-0.513,0.088
		c-0.096,0.055-0.143,0.137-0.143,0.238c0,0.145,0.067,0.247,0.211,0.314c0.137,0.063,0.343,0.097,0.608,0.097
		c0.417,0,0.875-0.007,1.367-0.021c0.491-0.015,0.978-0.026,1.456-0.041c0.486-0.016,0.915-0.026,1.298-0.041
		c0.391-0.015,0.685-0.021,0.882-0.021c0.165,0,0.451,0.007,0.869,0.021c0.418,0.015,0.908,0.025,1.481,0.041
		c0.575,0.015,1.183,0.026,1.817,0.041c0.637,0.017,1.259,0.021,1.86,0.021c0.267,0,0.471-0.034,0.608-0.097
		c0.143-0.067,0.212-0.173,0.212-0.314c0-0.102-0.041-0.186-0.123-0.238c-0.082-0.063-0.205-0.088-0.369-0.088
		c-0.17,0-0.368-0.01-0.601-0.021c-0.231-0.021-0.479-0.041-0.725-0.063c-0.247-0.025-0.471-0.055-0.683-0.082
		c-0.403-0.054-0.718-0.189-0.937-0.395c-0.218-0.198-0.369-0.467-0.465-0.78c-0.095-0.321-0.165-0.683-0.198-1.08
		c-0.067-0.579-0.114-1.312-0.143-2.192c-0.027-0.881-0.048-1.879-0.055-2.99c-0.007-1.114-0.007-2.311-0.007-3.588v-0.575
		c0-0.123,0.026-0.204,0.09-0.259c0.054-0.048,0.136-0.068,0.237-0.068l3.566,0.081c0.143-0.005,0.281,0.014,0.404,0.048
		c0.123,0.041,0.231,0.115,0.334,0.239c0.137,0.157,0.349,0.438,0.628,0.826c0.279,0.391,0.608,0.854,0.984,1.387
		c0.376,0.534,0.778,1.1,1.195,1.692c0.417,0.596,0.84,1.178,1.25,1.752c0.759,1.053,1.457,1.969,2.084,2.754
		c0.629,0.785,1.23,1.453,1.804,1.994c0.575,0.539,1.148,0.965,1.729,1.277c0.348,0.191,0.717,0.342,1.1,0.459
		c0.39,0.116,0.84,0.197,1.366,0.245c0.525,0.05,1.161,0.076,1.92,0.076h3.896c0.246,0,0.438-0.026,0.573-0.082
		c0.139-0.063,0.207-0.173,0.207-0.328c0-0.103-0.041-0.185-0.124-0.237c-0.082-0.063-0.205-0.09-0.367-0.09
		c-0.165,0-0.343-0.007-0.525-0.027c-0.191-0.021-0.397-0.055-0.623-0.096c-0.156-0.027-0.375-0.076-0.655-0.15
		c-0.281-0.08-0.616-0.211-1.011-0.396c-0.39-0.19-0.834-0.465-1.327-0.817c-0.492-0.356-1.023-0.837-1.598-1.423
		c-1.204-1.278-2.529-2.815-3.984-4.627c-1.463-1.805-3.095-3.86-4.915-6.157c1.374-1.114,2.454-2.18,3.247-3.199
		c0.792-1.025,1.354-2.023,1.682-3.007c0.333-0.978,0.491-1.975,0.484-2.979c-0.006-0.69-0.096-1.333-0.272-1.927
		c-0.178-0.595-0.409-1.134-0.689-1.619c-0.28-0.485-0.581-0.902-0.903-1.251c-0.323-0.349-0.631-0.623-0.924-0.821
		c-0.745-0.499-1.531-0.875-2.364-1.134c-0.834-0.253-1.688-0.424-2.569-0.514c-0.874-0.081-1.742-0.123-2.61-0.115
		c-0.328,0-0.739,0.005-1.245,0.019c-0.499,0.007-1.031,0.029-1.598,0.042c-0.568,0.014-1.107,0.028-1.627,0.041
		c-0.521,0.014-0.957,0.021-1.313,0.021c-0.218,0-0.533-0.007-0.936-0.021C37.287,3.248,36.83,3.234,36.31,3.22
		c-0.521-0.014-1.061-0.034-1.626-0.042c-0.567-0.013-1.128-0.019-1.675-0.019c-0.308-0.006-0.532,0.019-0.684,0.075
		c-0.143,0.055-0.217,0.15-0.217,0.293c0,0.138,0.061,0.24,0.176,0.294c0.124,0.046,0.295,0.073,0.521,0.073
		c0.301,0,0.594,0.006,0.896,0.029C34,3.943,34.239,3.979,34.41,4.019c0.444,0.088,0.792,0.231,1.038,0.423
		c0.246,0.185,0.425,0.437,0.534,0.752c0.103,0.308,0.171,0.697,0.19,1.161C36.188,6.606,36.2,6.88,36.214,7.16
		c0.009,0.287,0.021,0.63,0.028,1.025c0,0.396,0.006,0.896,0.006,1.483c0.008,0.594,0.008,1.333,0.008,2.207
		c0,0.875,0,1.934,0,3.171v7.217h-0.003V22.266z M11.94,22.266c0,1.264,0,2.446-0.006,3.561c-0.007,1.106-0.026,2.098-0.055,2.979
		c-0.026,0.883-0.076,1.612-0.144,2.192c-0.055,0.604-0.164,1.108-0.334,1.512c-0.17,0.404-0.452,0.656-0.855,0.744
		c-0.185,0.043-0.396,0.082-0.641,0.115c-0.246,0.026-0.527,0.049-0.834,0.049c-0.239,0-0.411,0.026-0.512,0.09
		c-0.098,0.054-0.145,0.136-0.145,0.237c0,0.145,0.068,0.247,0.211,0.314c0.138,0.063,0.343,0.097,0.609,0.097
		c0.417,0,0.875-0.007,1.367-0.021c0.489-0.014,0.989-0.024,1.475-0.041c0.492-0.015,0.944-0.024,1.354-0.038
		c0.403-0.017,0.73-0.021,0.97-0.021c0.391,0,0.917,0.016,1.579,0.033c0.663,0.021,1.407,0.033,2.24,0.056
		c0.835,0.021,1.71,0.034,2.617,0.034c0.233,0,0.417-0.034,0.561-0.098c0.144-0.066,0.212-0.17,0.218-0.313
		c0-0.103-0.054-0.185-0.157-0.239c-0.108-0.06-0.271-0.088-0.499-0.088c-0.205,0-0.437-0.008-0.689-0.021
		c-0.246-0.021-0.493-0.041-0.739-0.062c-0.246-0.026-0.464-0.055-0.663-0.082c-0.403-0.054-0.717-0.185-0.936-0.39
		c-0.218-0.205-0.368-0.465-0.465-0.778c-0.096-0.31-0.162-0.664-0.197-1.047c-0.069-0.595-0.116-1.332-0.145-2.222
		c-0.025-0.889-0.048-1.883-0.054-2.992c-0.007-1.112-0.007-2.294-0.007-3.56V5.456l5.166,0.122c1.209,0.035,2.16,0.164,2.855,0.396
		C25.792,6.2,26.29,6.486,26.59,6.821c0.302,0.341,0.464,0.69,0.479,1.053l0.041,0.45c0.02,0.3,0.055,0.512,0.116,0.642
		c0.068,0.123,0.178,0.178,0.334,0.178c0.125,0,0.206-0.061,0.26-0.178c0.056-0.109,0.09-0.272,0.11-0.478
		c0-0.281,0.007-0.635,0.021-1.073c0.012-0.438,0.027-0.902,0.042-1.379c0.013-0.486,0.026-0.937,0.041-1.346
		c0.014-0.411,0.019-0.731,0.019-0.957c0.007-0.308-0.013-0.525-0.054-0.663c-0.042-0.136-0.137-0.197-0.272-0.197
		c-0.081,0-0.206,0.021-0.384,0.055c-0.178,0.042-0.417,0.089-0.724,0.15c-0.301,0.042-0.69,0.088-1.155,0.13
		c-0.458,0.048-1.019,0.067-1.674,0.075H7.553c-0.45,0-0.923-0.007-1.4-0.027c-0.479-0.014-0.95-0.041-1.408-0.068
		C4.287,3.154,3.856,3.12,3.453,3.078C3.118,3.044,2.838,2.989,2.612,2.914C2.394,2.839,2.21,2.764,2.066,2.695
		C1.923,2.625,1.8,2.591,1.69,2.585c-0.123,0-0.22,0.062-0.294,0.192C1.32,2.899,1.26,3.097,1.198,3.363
		C1.179,3.442,1.146,3.625,1.076,3.92c-0.06,0.294-0.129,0.648-0.211,1.059C0.774,5.388,0.7,5.805,0.618,6.229
		C0.536,6.652,0.476,7.036,0.42,7.37C0.366,7.703,0.339,7.938,0.339,8.081c0,0.226,0.021,0.391,0.075,0.5
		c0.055,0.102,0.15,0.157,0.293,0.157c0.124,0,0.219-0.041,0.288-0.124c0.069-0.081,0.123-0.205,0.164-0.369
		C1.2,8.08,1.276,7.876,1.386,7.637C1.496,7.39,1.655,7.118,1.859,6.81c0.195-0.302,0.456-0.527,0.778-0.691
		c0.313-0.165,0.73-0.281,1.25-0.356C4.398,5.689,5.048,5.64,5.834,5.619l6.107-0.163L11.94,22.266L11.94,22.266z M92.119,33.475
		c-0.1-0.04-0.23-0.07-0.39-0.061c-0.25,0-0.52-0.01-0.82-0.029c-0.29-0.03-0.6-0.07-0.91-0.13c-0.21-0.061-0.44-0.15-0.71-0.29
		c-0.25-0.141-0.53-0.36-0.83-0.67c-0.3-0.311-0.62-0.75-0.96-1.32c-0.34-0.561-0.71-1.3-1.1-2.21c-0.33-0.79-0.71-1.71-1.15-2.771
		c-0.44-1.069-0.91-2.22-1.41-3.47s-1.02-2.53-1.56-3.87c-0.53-1.33-1.06-2.66-1.58-3.97c-0.53-1.32-1.03-2.58-1.51-3.79
		c-0.49-1.21-0.93-2.31-1.33-3.31c-0.4-1-0.74-1.85-1.02-2.54c-0.29-0.7-0.48-1.19-0.61-1.48c-0.2-0.46-0.38-0.8-0.53-1.01
		c-0.16-0.2-0.32-0.3-0.5-0.3c-0.2,0-0.37,0.12-0.54,0.38c-0.17,0.25-0.37,0.68-0.61,1.26l-10.29,25.75
		c-0.27,0.68-0.55,1.29-0.85,1.81c-0.3,0.53-0.66,0.95-1.08,1.271c-0.41,0.33-0.93,0.53-1.56,0.609
		c-0.17,0.021-0.38,0.04-0.62,0.061c-0.24,0.02-0.46,0.02-0.65,0.02c-0.16,0-0.29,0.021-0.37,0.08c-0.08,0.051-0.12,0.13-0.12,0.25
		c0,0.16,0.06,0.271,0.19,0.33c0.13,0.05,0.32,0.08,0.59,0.08c0.54,0,1.07-0.01,1.59-0.02c0.53-0.021,1.01-0.03,1.46-0.04
		c0.45-0.021,0.83-0.03,1.14-0.04c0.31-0.021,0.53-0.021,0.65-0.021c0.43,0,0.89,0.011,1.4,0.03c0.51,0.02,1.01,0.04,1.52,0.06
		c0.51,0.011,0.98,0.03,1.43,0.03c0.22,0,0.39-0.03,0.52-0.08c0.11-0.06,0.17-0.17,0.17-0.33c0.01-0.12-0.03-0.199-0.12-0.25
		c-0.09-0.06-0.25-0.08-0.49-0.08h-0.62c-0.62,0-1.06-0.119-1.3-0.35c-0.23-0.23-0.35-0.54-0.34-0.92c0-0.25,0.06-0.61,0.16-1.05
		c0.1-0.44,0.25-0.931,0.46-1.45l2.21-5.86c0.04-0.13,0.08-0.21,0.14-0.26s0.13-0.07,0.23-0.07h9.15c0.1,0,0.18,0.02,0.25,0.07
		c0.06,0.04,0.12,0.11,0.16,0.22l3.28,8.69c0.1,0.25,0.1,0.46,0,0.63c-0.09,0.16-0.21,0.27-0.37,0.31
		c-0.2,0.021-0.35,0.051-0.44,0.11c-0.09,0.05-0.13,0.14-0.13,0.26c0,0.141,0.11,0.221,0.34,0.25c0.22,0.03,0.51,0.061,0.89,0.08
		c1.1,0.03,2.14,0.05,3.13,0.05c0.99,0.011,1.89,0.021,2.68,0.021c0.79,0.01,1.44,0.01,1.94,0.01c0.49,0,0.89-0.01,1.16-0.03
		c0.27-0.02,0.46-0.06,0.57-0.13c0.1-0.06,0.16-0.14,0.15-0.25C92.259,33.614,92.209,33.515,92.119,33.475z M78.059,21.334
		c-0.03,0.04-0.09,0.07-0.19,0.07h-7.55c-0.08,0-0.13-0.03-0.15-0.08c-0.03-0.05-0.03-0.12-0.01-0.2l3.77-10.09
		c0.02-0.09,0.06-0.17,0.1-0.25c0.04-0.07,0.08-0.11,0.15-0.12c0.06,0.01,0.1,0.05,0.13,0.12c0.03,0.08,0.05,0.16,0.07,0.25
		l3.69,10.12C78.089,21.225,78.089,21.285,78.059,21.334z"/>
	<path fill="#FFFFFF" d="M169.235,21.328l1-7.671h0.166c0.291,0.621,0.604,1.306,0.955,2.043c0.35,0.737,0.705,1.489,1.061,2.241
		c0.355,0.751,0.689,1.462,1.004,2.126c0.217,0.47,0.412,0.888,0.588,1.261h5.5l-8.613-17.799c-0.178-0.348-0.328-0.62-0.451-0.806
		c-0.123-0.185-0.239-0.308-0.342-0.375c-0.104-0.063-0.205-0.096-0.313-0.09c-0.164,0-0.308,0.09-0.425,0.273
		c-0.122,0.177-0.211,0.444-0.272,0.792l-2.733,18.003h2.881v0.002H169.235z M187.37,21.328l3.9-8.122h0.164l1.106,8.122h4.957
		l-2.62-17.798c-0.063-0.429-0.148-0.751-0.273-0.957c-0.123-0.212-0.279-0.315-0.463-0.315c-0.178,0-0.334,0.082-0.467,0.247
		c-0.129,0.164-0.279,0.41-0.438,0.738l-8.613,18.085H187.37L187.37,21.328z M95.53,21.328c-0.23-1.106-0.35-2.297-0.355-3.57
		c-0.008-1.332,0.097-2.637,0.314-3.909c0.219-1.278,0.602-2.48,1.148-3.622c0.555-1.135,1.316-2.166,2.31-3.089
		c0.595-0.546,1.265-1.011,2.011-1.386c0.736-0.384,1.578-0.663,2.514-0.862c0.938-0.198,2.004-0.293,3.186-0.293
		c1.263,0.006,2.445,0.116,3.531,0.342c1.092,0.219,2.051,0.52,2.869,0.902c0.818,0.383,1.463,0.813,1.92,1.299
		c0.515,0.539,0.902,1.148,1.168,1.812c0.269,0.655,0.412,1.311,0.433,1.961c0,0.286,0.026,0.512,0.081,0.663
		c0.063,0.157,0.173,0.238,0.328,0.238c0.177,0,0.302-0.08,0.367-0.238c0.066-0.164,0.109-0.397,0.123-0.704
		c0.021-0.211,0.033-0.492,0.041-0.847s0.016-0.745,0.021-1.169c0.006-0.424,0.014-0.848,0.02-1.264
		c0.008-0.425,0.021-0.807,0.041-1.15c0.027-0.47,0.062-0.86,0.09-1.147c0.033-0.293,0.062-0.525,0.082-0.696
		c0.021-0.171,0.033-0.308,0.033-0.411c0-0.13-0.041-0.231-0.137-0.321c-0.096-0.096-0.254-0.151-0.479-0.171
		c-0.606-0.069-1.25-0.179-1.928-0.322c-0.67-0.137-1.395-0.267-2.172-0.375c-0.623-0.082-1.224-0.157-1.813-0.218
		c-0.594-0.063-1.217-0.111-1.879-0.146c-0.662-0.028-1.414-0.047-2.254-0.047c-2.03,0-3.834,0.177-5.42,0.526
		c-1.584,0.348-2.992,0.841-4.222,1.489c-1.237,0.65-2.338,1.422-3.315,2.331c-0.978,0.908-1.784,1.872-2.413,2.884
		c-0.627,1.011-1.113,2.03-1.462,3.04c-0.349,1.012-0.586,1.975-0.724,2.884c-0.138,0.909-0.206,1.723-0.198,2.427
		c-0.008,0.997,0.075,2.022,0.232,3.069l0.014,0.092h5.894L95.53,21.328L95.53,21.328z M70.166,21.328l-0.001-0.002
		c-0.028-0.056-0.028-0.125-0.006-0.206l3.771-10.087c0.02-0.088,0.055-0.171,0.095-0.246c0.041-0.077,0.088-0.117,0.15-0.123
		c0.062,0.006,0.103,0.047,0.138,0.123c0.025,0.075,0.048,0.157,0.066,0.246l3.691,10.126c0.02,0.061,0.02,0.121-0.004,0.168h5.287
		c-0.352-0.871-0.709-1.758-1.073-2.669c-0.534-1.333-1.06-2.658-1.586-3.977c-0.526-1.319-1.031-2.577-1.51-3.787
		C78.7,9.686,78.262,8.585,77.86,7.58c-0.397-0.997-0.739-1.845-1.021-2.535c-0.287-0.696-0.484-1.188-0.614-1.476
		c-0.198-0.465-0.375-0.807-0.526-1.011C75.543,2.353,75.377,2.25,75.2,2.257c-0.2-0.006-0.376,0.116-0.54,0.376
		c-0.172,0.253-0.37,0.677-0.609,1.264l-6.965,17.43L70.166,21.328L70.166,21.328z M41.091,5.825c0-0.163,0.021-0.287,0.076-0.382
		c0.054-0.09,0.15-0.151,0.295-0.192c0.205-0.061,0.49-0.103,0.854-0.13c0.369-0.027,0.806-0.033,1.316-0.033
		c0.492-0.007,1.021,0.069,1.578,0.219c0.568,0.149,1.121,0.402,1.674,0.745c0.554,0.342,1.052,0.806,1.511,1.38
		c0.45,0.581,0.818,1.292,1.092,2.146c0.272,0.847,0.41,1.852,0.417,3.014c-0.006,1.114-0.123,2.078-0.355,2.89
		c-0.225,0.806-0.524,1.476-0.888,2.01c-0.369,0.538-0.758,0.949-1.176,1.25c-0.238,0.178-0.479,0.314-0.716,0.417
		c-0.24,0.103-0.534,0.178-0.875,0.219c-0.342,0.041-0.778,0.063-1.317,0.063c-0.343,0-0.706-0.014-1.073-0.041
		c-0.369-0.026-0.73-0.076-1.08-0.136c-0.354-0.061-0.671-0.137-0.963-0.232c-0.144-0.056-0.238-0.137-0.294-0.247
		c-0.054-0.109-0.077-0.271-0.077-0.491L41.091,5.825L41.091,5.825z M41.356,21.328c0.02-0.002,0.041-0.002,0.062-0.002l0.124,0.002
		h9.06l-1.271-1.603c1.375-1.114,2.454-2.179,3.247-3.198c0.792-1.025,1.354-2.023,1.681-3.006c0.334-0.978,0.492-1.975,0.485-2.98
		c-0.006-0.69-0.097-1.333-0.273-1.927c-0.177-0.596-0.408-1.135-0.689-1.62c-0.279-0.484-0.581-0.902-0.903-1.25
		c-0.32-0.349-0.627-0.622-0.922-0.82c-0.744-0.499-1.53-0.875-2.364-1.134c-0.834-0.253-1.688-0.424-2.569-0.514
		c-0.874-0.081-1.742-0.123-2.61-0.115c-0.328,0-0.738,0.005-1.244,0.019c-0.499,0.008-1.032,0.029-1.598,0.042
		c-0.568,0.014-1.107,0.028-1.627,0.041c-0.521,0.014-0.957,0.021-1.313,0.021c-0.219,0-0.533-0.007-0.936-0.021
		c-0.404-0.013-0.862-0.027-1.38-0.041c-0.521-0.014-1.061-0.034-1.627-0.042c-0.567-0.013-1.128-0.019-1.674-0.019
		c-0.308-0.006-0.532,0.019-0.684,0.075c-0.143,0.055-0.217,0.15-0.217,0.293c0,0.138,0.06,0.24,0.176,0.294
		c0.124,0.046,0.295,0.073,0.52,0.073c0.301,0,0.594,0.007,0.896,0.029C34,3.945,34.239,3.98,34.411,4.02
		c0.443,0.088,0.792,0.232,1.038,0.424c0.246,0.185,0.425,0.437,0.534,0.752c0.103,0.307,0.171,0.697,0.19,1.161
		c0.016,0.252,0.027,0.526,0.041,0.806c0.008,0.287,0.021,0.63,0.028,1.025c0,0.396,0.006,0.896,0.006,1.483
		c0.008,0.594,0.008,1.333,0.008,2.207c0,0.875,0,1.934,0,3.171v6.276h5.104v0.003H41.356z M17.066,21.328V5.456l5.166,0.122
		c1.209,0.035,2.16,0.164,2.855,0.396C25.792,6.2,26.29,6.486,26.59,6.821c0.302,0.341,0.465,0.69,0.479,1.053l0.041,0.45
		c0.02,0.3,0.055,0.512,0.116,0.642c0.068,0.123,0.177,0.178,0.334,0.178c0.125,0,0.206-0.061,0.26-0.178
		c0.056-0.109,0.09-0.272,0.11-0.478c0-0.281,0.007-0.635,0.021-1.073c0.013-0.438,0.027-0.902,0.042-1.379
		c0.014-0.486,0.026-0.937,0.042-1.346c0.014-0.411,0.02-0.731,0.02-0.957C28.061,3.425,28.04,3.208,28,3.07
		c-0.042-0.136-0.137-0.197-0.272-0.197c-0.082,0-0.206,0.021-0.384,0.055c-0.178,0.042-0.417,0.089-0.724,0.15
		c-0.301,0.042-0.689,0.088-1.155,0.13c-0.458,0.048-1.019,0.067-1.674,0.075H7.553c-0.45,0-0.923-0.007-1.4-0.027
		c-0.479-0.014-0.95-0.041-1.408-0.068C4.287,3.154,3.856,3.12,3.453,3.078C3.118,3.044,2.838,2.989,2.612,2.914
		C2.394,2.839,2.21,2.764,2.066,2.695C1.923,2.625,1.8,2.591,1.69,2.585c-0.123,0-0.22,0.062-0.294,0.192
		C1.32,2.899,1.26,3.097,1.198,3.363C1.179,3.442,1.146,3.625,1.076,3.92c-0.06,0.294-0.129,0.648-0.211,1.059
		C0.774,5.388,0.7,5.805,0.618,6.229C0.536,6.652,0.476,7.036,0.42,7.37C0.366,7.703,0.339,7.938,0.339,8.081
		c0,0.226,0.021,0.391,0.075,0.5c0.055,0.102,0.15,0.157,0.293,0.157c0.124,0,0.219-0.041,0.288-0.124
		c0.069-0.081,0.123-0.205,0.164-0.369C1.2,8.08,1.276,7.876,1.386,7.637C1.496,7.39,1.655,7.118,1.859,6.81
		c0.195-0.302,0.456-0.527,0.778-0.691c0.313-0.165,0.73-0.281,1.25-0.356C4.398,5.689,5.048,5.64,5.834,5.619l6.107-0.163v15.871
		L17.066,21.328L17.066,21.328z"/>
	<g>
		<path fill="#005596" d="M122.882,14.713c0.057-1.542,3.162-2.821,3.162-2.821l-0.271,3.003c0,0-0.76-0.591-1.557,0.323
			C123.562,15.352,123.083,15.056,122.882,14.713z"/>
		<path fill="#005596" d="M124.868,19.553c0,0-2.729,1.791-1.219,4.271l0.701,0.404c0,0,0.082-1.665,0.854-2.421L124.868,19.553z"/>
		
			<radialGradient id="SVGID_2_" cx="184.2734" cy="1343.2695" r="19.6649" gradientTransform="matrix(1 0 0 1 -41.7197 -1325.1133)" gradientUnits="userSpaceOnUse">
			<stop  offset="0" style="stop-color:#EFEFF0"/>
			<stop  offset="1" style="stop-color:#807F83"/>
		</radialGradient>
		<path fill="url(#SVGID_2_)" d="M142.554,35.984c9.82,0,17.828-8.01,17.828-17.828c0-9.82-8.008-17.829-17.828-17.829
			c-9.818,0-17.828,8.008-17.828,17.829C124.726,27.977,132.733,35.984,142.554,35.984z"/>
		
			<linearGradient id="SVGID_3_" gradientUnits="userSpaceOnUse" x1="167.3584" y1="1343.4248" x2="191.5059" y2="1333.6686" gradientTransform="matrix(1 0 0 1 -41.7197 -1325.1133)">
			<stop  offset="0" style="stop-color:#FFFFFF"/>
			<stop  offset="1" style="stop-color:#005596"/>
		</linearGradient>
		<path fill="url(#SVGID_3_)" d="M122.847,14.972c0.109,0.192,0.469,0.504,1.094,0.442c3.134-0.308,13.41-3.7,21.015-8.014
			c-0.358-0.566-0.513-1.286-0.513-1.286l8.063,0.668l-4.367,7.04l-0.563-1.337c0,0-8.018,3.494-12.946,4.984
			c-4.935,1.489-11.142,2.799-12.063,1L122.847,14.972z"/>
		
			<linearGradient id="SVGID_4_" gradientUnits="userSpaceOnUse" x1="168.9873" y1="1352.0371" x2="199.2903" y2="1339.7939" gradientTransform="matrix(1 0 0 1 -41.7197 -1325.1133)">
			<stop  offset="0" style="stop-color:#FFFFFF"/>
			<stop  offset="1" style="stop-color:#005596"/>
		</linearGradient>
		<path fill="url(#SVGID_4_)" d="M124.829,26.917c3.213,3.767,12.563-0.349,17.688-2.14c5.131-1.792,12.313-5.437,12.313-5.437
			l0.612,1.017l3.597-6.719l-7.627,0.286l0.788,1.017c0,0-1.53,1.203-7.973,4.136c-6.444,2.931-12.803,5.051-16.66,5.538
			c-3.858,0.488-4.295-0.896-4.295-0.896S124.474,26.499,124.829,26.917z"/>
	</g>
	<path fill="#FFFFFF" d="M9.102,47.618v-1.562c0.527,0.328,0.974,0.558,1.337,0.688c0.362,0.131,0.713,0.194,1.057,0.194
		c0.344,0,0.604-0.055,0.782-0.156c0.177-0.106,0.266-0.262,0.266-0.471c0-0.168-0.055-0.303-0.167-0.404
		c-0.109-0.104-0.368-0.225-0.771-0.364c-0.999-0.351-1.688-0.709-2.063-1.074c-0.376-0.364-0.563-0.836-0.563-1.401
		c0-0.599,0.245-1.084,0.733-1.459c0.491-0.375,1.129-0.563,1.916-0.563c0.398,0,0.796,0.049,1.198,0.146
		c0.401,0.098,0.798,0.238,1.188,0.428v1.439c-0.471-0.236-0.895-0.412-1.27-0.523c-0.374-0.114-0.715-0.174-1.022-0.174
		c-0.334,0-0.59,0.049-0.765,0.146c-0.176,0.098-0.264,0.235-0.264,0.416c0,0.146,0.079,0.283,0.236,0.414
		c0.155,0.127,0.395,0.25,0.713,0.366c0.065,0.026,0.168,0.063,0.305,0.114c0.669,0.248,1.147,0.462,1.439,0.637
		c0.305,0.188,0.535,0.43,0.689,0.723c0.155,0.295,0.233,0.639,0.233,1.033c0,0.646-0.246,1.158-0.735,1.53
		c-0.49,0.37-1.169,0.556-2.039,0.556c-0.434,0-0.855-0.057-1.262-0.172C9.867,48.018,9.477,47.845,9.102,47.618L9.102,47.618z
		 M22.193,48.177v-7.021h4.69v1.294H23.95v1.431h2.803v1.305H23.95v1.676h3.02v1.314h-4.775L22.193,48.177L22.193,48.177z
		 M37.584,44.038c0.325,0,0.566-0.068,0.727-0.203c0.159-0.137,0.236-0.342,0.236-0.619c0-0.266-0.082-0.465-0.247-0.604
		c-0.167-0.137-0.404-0.207-0.716-0.207h-0.843v1.635L37.584,44.038L37.584,44.038z M34.982,48.177v-7.021h2.592
		c0.953,0,1.658,0.167,2.113,0.496c0.453,0.33,0.68,0.846,0.68,1.541c0,0.388-0.101,0.718-0.301,0.994
		c-0.199,0.276-0.506,0.512-0.923,0.701c0.175,0.063,0.331,0.17,0.47,0.317c0.138,0.149,0.26,0.336,0.364,0.565l1.118,2.402h-1.98
		l-0.892-2.023c-0.145-0.318-0.309-0.541-0.493-0.659c-0.184-0.121-0.445-0.185-0.782-0.185c-0.025,0-0.063,0.004-0.105,0.008
		c-0.044,0.004-0.076,0.006-0.101,0.006v2.854L34.982,48.177L34.982,48.177z M50.799,48.236l-3.186-7.079h1.883l1.735,4.077
		l1.851-4.077h1.9l-3.421,7.079H50.799L50.799,48.236z M62.361,48.177v-7.021h1.812v7.021H62.361L62.361,48.177z M78.577,47.589
		c-0.422,0.241-0.853,0.42-1.294,0.539c-0.442,0.115-0.905,0.174-1.389,0.174c-0.551,0-1.054-0.084-1.515-0.25
		c-0.459-0.168-0.86-0.413-1.206-0.739c-0.354-0.336-0.625-0.732-0.809-1.187c-0.188-0.449-0.278-0.935-0.278-1.451
		c0-1.093,0.362-1.97,1.09-2.638c0.729-0.667,1.689-1,2.883-1c0.427,0,0.846,0.048,1.251,0.14c0.406,0.097,0.81,0.238,1.207,0.435
		v1.646c-0.39-0.254-0.775-0.438-1.169-0.563c-0.392-0.125-0.783-0.188-1.175-0.188c-0.709,0-1.268,0.192-1.673,0.578
		c-0.406,0.385-0.609,0.914-0.609,1.592c0,0.653,0.192,1.18,0.583,1.568c0.387,0.393,0.908,0.586,1.564,0.586
		c0.421,0,0.843-0.072,1.27-0.223c0.426-0.146,0.847-0.368,1.269-0.659V47.589L78.577,47.589z M86.464,48.177v-7.021h4.69v1.294
		h-2.937v1.431h2.806v1.305h-2.806v1.676h3.021v1.314L86.464,48.177L86.464,48.177L86.464,48.177z M99.102,47.618v-1.562
		c0.528,0.328,0.974,0.558,1.338,0.688c0.364,0.131,0.712,0.194,1.058,0.194c0.344,0,0.604-0.055,0.782-0.156
		c0.177-0.106,0.265-0.262,0.265-0.471c0-0.168-0.055-0.303-0.166-0.404c-0.109-0.104-0.367-0.225-0.771-0.364
		c-1-0.351-1.689-0.709-2.063-1.074c-0.377-0.364-0.564-0.836-0.564-1.401c0-0.599,0.244-1.084,0.732-1.459
		c0.492-0.375,1.129-0.563,1.916-0.563c0.397,0,0.797,0.049,1.199,0.146c0.399,0.098,0.797,0.238,1.188,0.428v1.439
		c-0.473-0.236-0.895-0.412-1.27-0.523c-0.375-0.114-0.716-0.174-1.025-0.174c-0.334,0-0.588,0.049-0.766,0.146
		c-0.175,0.098-0.263,0.235-0.263,0.416c0,0.146,0.079,0.283,0.235,0.414c0.158,0.127,0.396,0.25,0.714,0.366
		c0.067,0.026,0.169,0.063,0.304,0.114c0.67,0.248,1.151,0.462,1.442,0.637c0.305,0.188,0.532,0.43,0.688,0.723
		c0.155,0.295,0.233,0.639,0.233,1.033c0,0.646-0.248,1.158-0.736,1.53c-0.487,0.37-1.168,0.556-2.038,0.556
		c-0.436,0-0.855-0.057-1.262-0.172C99.866,48.018,99.477,47.845,99.102,47.618L99.102,47.618z M120.606,48.177v-7.021h1.756v5.666
		h3.025v1.354L120.606,48.177L120.606,48.177z M133.074,48.177v-7.021h1.812v7.021H133.074L133.074,48.177z M143.147,48.177v-7.021
		h1.551l2.253,2.824l2.263-2.824h1.549v7.021h-1.727v-4.345l-2.085,2.568l-2.065-2.568v4.345H143.147L143.147,48.177z
		 M159.036,48.177v-7.021h1.813v7.021H159.036L159.036,48.177z M170.813,48.177v-5.715h-2.323v-1.305h6.495v1.305h-2.322v5.715
		H170.813L170.813,48.177z M182.591,48.177v-7.021h4.69v1.294h-2.937v1.431h2.805v1.305h-2.805v1.676h3.021v1.314L182.591,48.177
		L182.591,48.177L182.591,48.177z M197.093,42.577v4.18h1.311c0.597,0,1.082-0.192,1.457-0.584s0.563-0.896,0.563-1.51
		c0-0.613-0.188-1.115-0.563-1.504c-0.375-0.39-0.862-0.583-1.457-0.583L197.093,42.577L197.093,42.577z M195.339,48.177v-7.021
		h2.635c0.752,0,1.336,0.057,1.75,0.172c0.416,0.113,0.797,0.303,1.145,0.563c0.447,0.338,0.788,0.742,1.02,1.213
		c0.231,0.47,0.348,0.99,0.348,1.563c0,0.624-0.141,1.193-0.422,1.702c-0.28,0.512-0.687,0.937-1.219,1.276
		c-0.302,0.191-0.636,0.326-0.998,0.408c-0.363,0.082-0.904,0.123-1.621,0.123L195.339,48.177L195.339,48.177L195.339,48.177z"/>
</g>
</svg>
